#geometric vertices
v 0.000000 0.030000 -0.490000
vn 0.000000000 1.000000000 0.000000000
vt 0.102554000 0.346704000
v 0.424352 0.030000 -0.245000
vn 0.000000000 1.000000000 0.000000000
vt 0.301077024 0.346704000
v 0.424352 0.030000 0.245000
vn 0.000000000 1.000000000 0.000000000
vt 0.400339008 0.174778000
v 0.000000 0.030000 0.490000
vn 0.000000000 1.000000000 0.000000000
vt 0.301077024 0.002852000
v -0.424352 0.030000 0.245000
vn 0.000000000 1.000000000 0.000000000
vt 0.102554000 0.002852000
v -0.424352 0.030000 -0.245000
vn 0.000000000 1.000000000 0.000000000
vt 0.003293000 0.174778000
v 0.000000 0.000000 -0.490000
vn 0.000000000 -1.000000000 0.000000000
vt 0.102554000 0.690555968
v -0.424352 0.000000 -0.245000
vn 0.000000000 -1.000000000 0.000000000
vt 0.301077024 0.690555968
v -0.424352 0.000000 0.245000
vn 0.000000000 -1.000000000 0.000000000
vt 0.400339008 0.518630016
v 0.000000 0.000000 0.490000
vn 0.000000000 -1.000000000 0.000000000
vt 0.301077024 0.346704000
v 0.424352 0.000000 0.245000
vn 0.000000000 -1.000000000 0.000000000
vt 0.102554000 0.346704000
v 0.424352 0.000000 -0.245000
vn 0.000000000 -1.000000000 0.000000000
vt 0.003293000 0.518630016
v 0.000000 0.030000 -0.490000
vn 0.500000416 0.000000000 -0.866025152
vt 0.000000000 0.159660000
v 0.424352 0.030000 -0.245000
vn 0.500000416 0.000000000 -0.866025152
vt 0.000000000 0.159660000
v 0.424352 0.000000 -0.245000
vn 0.500000416 0.000000000 -0.866025152
vt 0.000000000 0.153300000
v 0.000000 0.000000 -0.490000
vn 0.500000416 0.000000000 -0.866025152
vt 0.000000000 0.153300000
v 0.424352 0.030000 -0.245000
vn 1.000000000 0.000000000 0.000000000
vt 0.000000000 0.159660000
v 0.424352 0.030000 0.245000
vn 1.000000000 0.000000000 0.000000000
vt 0.000000000 0.159660000
v 0.424352 0.000000 0.245000
vn 1.000000000 0.000000000 0.000000000
vt 0.000000000 0.153300000
v 0.424352 0.000000 -0.245000
vn 1.000000000 0.000000000 0.000000000
vt 0.000000000 0.153300000
v 0.424352 0.030000 0.245000
vn 0.500000416 0.000000000 0.866025152
vt 0.000000000 0.159660000
v 0.000000 0.030000 0.490000
vn 0.500000416 0.000000000 0.866025152
vt 0.000000000 0.159660000
v 0.000000 0.000000 0.490000
vn 0.500000416 0.000000000 0.866025152
vt 0.000000000 0.153300000
v 0.424352 0.000000 0.245000
vn 0.500000416 0.000000000 0.866025152
vt 0.000000000 0.153300000
v 0.000000 0.030000 0.490000
vn -0.500000416 0.000000000 0.866025152
vt 0.000000000 0.159660000
v -0.424352 0.030000 0.245000
vn -0.500000416 0.000000000 0.866025152
vt 0.000000000 0.159660000
v -0.424352 0.000000 0.245000
vn -0.500000416 0.000000000 0.866025152
vt 0.000000000 0.153300000
v 0.000000 0.000000 0.490000
vn -0.500000416 0.000000000 0.866025152
vt 0.000000000 0.153300000
v -0.424352 0.030000 0.245000
vn -1.000000000 0.000000000 0.000000000
vt 0.000000000 0.159660000
v -0.424352 0.030000 -0.245000
vn -1.000000000 0.000000000 0.000000000
vt 0.000000000 0.159660000
v -0.424352 0.000000 -0.245000
vn -1.000000000 0.000000000 0.000000000
vt 0.000000000 0.153300000
v -0.424352 0.000000 0.245000
vn -1.000000000 0.000000000 0.000000000
vt 0.000000000 0.153300000
v -0.424352 0.030000 -0.245000
vn -0.500000416 0.000000000 -0.866025152
vt 0.000000000 0.159660000
v 0.000000 0.030000 -0.490000
vn -0.500000416 0.000000000 -0.866025152
vt 0.000000000 0.159660000
v 0.000000 0.000000 -0.490000
vn -0.500000416 0.000000000 -0.866025152
vt 0.000000000 0.153300000
v -0.424352 0.000000 -0.245000
vn -0.500000416 0.000000000 -0.866025152
vt 0.000000000 0.153300000
#triangles
f 1/1/1 6/6/6 5/5/5
f 3/3/3 2/2/2 1/1/1
f 5/5/5 4/4/4 3/3/3
f 5/5/5 3/3/3 1/1/1
f 11/11/11 10/10/10 9/9/9
f 9/9/9 8/8/8 7/7/7
f 7/7/7 12/12/12 11/11/11
f 11/11/11 9/9/9 7/7/7
f 13/13/13 14/14/14 15/15/15
f 13/13/13 15/15/15 16/16/16
f 17/17/17 18/18/18 19/19/19
f 17/17/17 19/19/19 20/20/20
f 21/21/21 22/22/22 23/23/23
f 21/21/21 23/23/23 24/24/24
f 25/25/25 26/26/26 27/27/27
f 25/25/25 27/27/27 28/28/28
f 29/29/29 30/30/30 31/31/31
f 29/29/29 31/31/31 32/32/32
f 33/33/33 34/34/34 35/35/35
f 33/33/33 35/35/35 36/36/36
